<svg width="46" height="46" viewBox="0 0 46 46" fill="none" xmlns="http://www.w3.org/2000/svg">
<g filter="url(#filter0_d_385_66)">
<circle cx="23" cy="23" r="12" fill="url(#paint0_linear_385_66)"/>
<circle cx="23" cy="23" r="11.5" stroke="white"/>
</g>
<path d="M22.1774 29.8758C21.8528 29.793 21.6906 29.5788 21.6074 29.2726C21.4164 28.5735 21.2064 27.8796 21.0046 27.1817C20.9923 27.1397 20.9828 27.095 20.9678 27.0358C21.2051 27.0713 21.4287 27.0661 21.6265 27.2185C21.8992 27.4261 22.1951 27.6023 22.4761 27.7994C22.532 27.8419 22.5733 27.8996 22.5947 27.965C22.697 28.2896 22.7897 28.6221 22.8838 28.9427C23.027 29.4408 22.8838 29.7063 22.3861 29.8758H22.1774Z" fill="black"/>
<path d="M21.7574 18.1452C21.7574 18.2372 21.7574 18.3029 21.7574 18.3686C21.7492 18.914 21.7397 19.4581 21.7342 20.0035C21.7362 20.1594 21.6768 20.3101 21.5678 20.4254C21.2283 20.7855 20.886 21.1482 20.5519 21.507C20.5233 21.5342 20.5018 21.5676 20.4893 21.6044C20.4767 21.6411 20.4734 21.6803 20.4796 21.7185C20.5887 22.6976 20.691 23.678 20.7946 24.6571C20.7946 24.6939 20.7946 24.732 20.7946 24.7807L20.1864 24.8345C19.9218 24.8556 19.6572 24.8753 19.3927 24.8989C19.3647 24.9047 19.3355 24.9006 19.3105 24.8874C19.2854 24.8741 19.2662 24.8525 19.2563 24.8266C19.0981 24.5047 18.9304 24.1879 18.7722 23.866C18.7528 23.8168 18.7504 23.7628 18.7654 23.7122C18.9017 23.2404 19.0381 22.7686 19.1745 22.2968C19.1829 22.2711 19.1829 22.2436 19.1745 22.2179C19.1552 22.241 19.1375 22.2651 19.1213 22.2902C18.8226 22.7817 18.5253 23.2746 18.224 23.7648C18.2055 23.7919 18.1957 23.8237 18.1957 23.8561C18.1957 23.8885 18.2055 23.9203 18.224 23.9474C18.4831 24.4512 18.7399 24.955 18.9945 25.4588C19.0702 25.578 19.0938 25.7213 19.0599 25.8572C19.026 25.9932 18.9375 26.1106 18.8138 26.1836C18.6901 26.2566 18.5414 26.2793 18.4003 26.2466C18.2593 26.214 18.1375 26.1286 18.0617 26.0094C18.0236 25.9486 17.989 25.8859 17.958 25.8215C17.6676 25.2498 17.3812 24.6768 17.0839 24.113C17.0235 24.0086 16.9948 23.89 17.0008 23.7706C17.0068 23.6512 17.0474 23.5358 17.118 23.4375C17.4535 22.9118 17.7794 22.3862 18.108 21.8605C18.1343 21.8241 18.149 21.7812 18.1503 21.7369L17.6485 22.2416L17.6157 22.2271C17.597 22.0705 17.5869 21.913 17.5857 21.7553C17.5928 21.5879 17.6611 21.4283 17.7787 21.3049C17.8963 21.1814 18.0555 21.1022 18.2281 21.0812C18.6372 21.0273 19.0463 20.9892 19.4472 20.9563C19.5049 20.9542 19.5614 20.9403 19.6131 20.9156C19.6649 20.8909 19.7106 20.856 19.7473 20.8131C20.02 20.5095 20.3064 20.2151 20.5832 19.9128C20.6235 19.866 20.6469 19.8079 20.65 19.7472C20.6678 19.0218 20.6787 18.3016 20.6978 17.5722C20.7021 17.5374 20.6948 17.5022 20.6769 17.4717C20.659 17.4412 20.6314 17.417 20.5982 17.4027C20.5058 17.356 20.4181 17.301 20.3364 17.2384C20.3153 17.2207 20.2987 17.1986 20.2879 17.1737C20.277 17.1489 20.2721 17.122 20.2737 17.0951C20.2859 17.0544 20.3582 17.0268 20.41 17.0045C20.4443 16.9985 20.4794 16.9985 20.5137 17.0045C23.0593 17.0045 25.6049 17.0045 28.1506 17.0045C28.4656 17.0045 28.5474 17.082 28.5474 17.3816V29.1057C28.5474 29.1386 28.5474 29.1727 28.5474 29.2056C28.5486 29.2509 28.5376 29.2957 28.5155 29.3357C28.4933 29.3757 28.4609 29.4095 28.4212 29.4338C28.3816 29.4581 28.3361 29.4722 28.2891 29.4745C28.2422 29.4769 28.1954 29.4676 28.1533 29.4474C27.5951 29.1846 27.04 28.9165 26.4882 28.6431C26.2827 28.5287 26.1171 28.3581 26.0122 28.1529C25.6604 27.551 25.3085 26.9491 24.9567 26.3472C24.8109 26.0927 24.746 25.8025 24.7699 25.5127C24.8149 24.7636 24.8462 24.0145 24.8885 23.2641C24.9006 23.0633 24.8659 22.8626 24.7868 22.6765C24.7077 22.4905 24.5864 22.3239 24.4317 22.189C23.9353 21.7067 23.4484 21.2165 22.9534 20.7316C22.7716 20.5558 22.6384 20.3389 22.5661 20.1007C22.427 19.6565 22.2865 19.2123 22.1447 18.7681C22.0789 18.5296 21.9446 18.3137 21.7574 18.1452Z" fill="black"/>
<path d="M19.3859 26.3156C19.6777 25.8833 19.5959 25.4693 19.345 25.0396L20.0868 25.1302C20.6637 25.2025 21.2419 25.2774 21.8188 25.3471C22.0007 25.3657 22.1748 25.4286 22.3247 25.5298C22.9616 25.9608 23.6012 26.3866 24.2339 26.8177C24.3775 26.9036 24.4812 27.0395 24.5235 27.1971C24.5659 27.3548 24.5435 27.5221 24.4612 27.6643C24.3789 27.8065 24.243 27.9128 24.0815 27.9609C23.9201 28.0091 23.7456 27.9955 23.5944 27.9229C23.4743 27.855 23.3583 27.7809 23.2466 27.7008C22.7407 27.3618 22.2361 27.0188 21.726 26.6823C21.6476 26.6323 21.5587 26.5995 21.4656 26.5864C20.7837 26.497 20.1141 26.4142 19.4377 26.3235C19.4203 26.3221 19.4029 26.3194 19.3859 26.3156Z" fill="black"/>
<path d="M17.658 19.5751C17.6577 19.3585 17.7241 19.1467 17.8487 18.9665C17.9734 18.7863 18.1507 18.6458 18.3583 18.5627C18.5658 18.4797 18.7943 18.4578 19.0147 18.4999C19.2352 18.542 19.4377 18.6461 19.5967 18.7992C19.7557 18.9522 19.8641 19.1473 19.908 19.3597C19.952 19.5721 19.9295 19.7923 19.8436 19.9924C19.7577 20.1925 19.6121 20.3635 19.4252 20.4839C19.2384 20.6042 19.0187 20.6685 18.7939 20.6685C18.4936 20.6664 18.2061 20.5506 17.9935 20.346C17.781 20.1414 17.6605 19.8645 17.658 19.5751Z" fill="black"/>
<defs>
<filter id="filter0_d_385_66" x="0.5" y="0.5" width="45" height="45" filterUnits="userSpaceOnUse" color-interpolation-filters="sRGB">
<feFlood flood-opacity="0" result="BackgroundImageFix"/>
<feColorMatrix in="SourceAlpha" type="matrix" values="0 0 0 0 0 0 0 0 0 0 0 0 0 0 0 0 0 0 127 0" result="hardAlpha"/>
<feOffset/>
<feGaussianBlur stdDeviation="5.25"/>
<feComposite in2="hardAlpha" operator="out"/>
<feColorMatrix type="matrix" values="0 0 0 0 1 0 0 0 0 0.982167 0 0 0 0 0.7325 0 0 0 0.54 0"/>
<feBlend mode="normal" in2="BackgroundImageFix" result="effect1_dropShadow_385_66"/>
<feBlend mode="normal" in="SourceGraphic" in2="effect1_dropShadow_385_66" result="shape"/>
</filter>
<linearGradient id="paint0_linear_385_66" x1="15" y1="15" x2="28.5" y2="31.5" gradientUnits="userSpaceOnUse">
<stop stop-color="#B38000"/>
<stop offset="0.406" stop-color="#F5EA2F"/>
<stop offset="0.776" stop-color="#DEAF12"/>
<stop offset="1" stop-color="#D5A308"/>
</linearGradient>
</defs>
</svg>
