<svg width="46" height="46" viewBox="0 0 46 46" fill="none" xmlns="http://www.w3.org/2000/svg">
<g filter="url(#filter0_d_382_43)">
<circle cx="23" cy="22.9998" r="12" fill="url(#paint0_linear_382_43)"/>
<circle cx="23" cy="22.9998" r="11.5" stroke="white"/>
</g>
<path d="M25.5417 20.8804C25.1093 21.4346 24.595 21.9267 24.0147 22.3416C23.1735 22.9486 22.2132 23.3899 21.1901 23.6396C21.167 23.65 21.1417 23.6553 21.1162 23.6551C21.0906 23.6549 21.0654 23.6492 21.0425 23.6385C21.0196 23.6278 20.9995 23.6123 20.9838 23.5931C20.968 23.574 20.957 23.5517 20.9516 23.528C20.6742 22.8949 20.4829 22.2308 20.3823 21.5517C20.221 20.4904 20.2003 19.414 20.3209 18.3477C20.3379 18.2866 20.3709 18.2305 20.4167 18.1846C20.4438 18.1486 20.4998 18.1314 20.5197 18.0936C20.6064 17.9219 20.7456 17.958 20.8956 17.982C22.0129 18.1818 23.0576 18.6506 23.9298 19.3436C24.5236 19.7993 25.0641 20.3146 25.5417 20.8804Z" fill="black"/>
<path d="M16 28.6163C16 28.4085 16 28.2092 16 28.01C16.0044 27.9907 16.0135 27.9726 16.0268 27.9574C16.04 27.9422 16.0568 27.9301 16.0759 27.9224C16.3642 27.8547 16.6341 27.7294 16.8674 27.5548C16.9957 27.4672 17.1259 27.383 17.2487 27.2885C17.5173 27.0786 17.834 26.9314 18.1733 26.8589C18.5125 26.7864 18.865 26.7906 19.2023 26.8711C19.647 26.9545 20.0863 27.0623 20.5179 27.1941C21.3555 27.446 22.2495 27.4763 23.1039 27.2817C23.5141 27.1941 23.9298 27.1322 24.3436 27.0721C24.8143 27.0075 25.2944 27.0505 25.7442 27.1975C26.5077 27.4272 27.3194 27.4727 28.1061 27.3298C28.566 27.2369 29.0406 27.2304 29.503 27.3109H29.5157C30 27.4174 30 27.4174 30 27.8829V28.6129L16 28.6163Z" fill="black"/>
<path d="M20.7058 17.7296C20.657 17.6025 20.7058 17.5476 20.8305 17.5081C22.0294 17.113 23.2999 16.9519 24.5659 17.0342C25.2664 17.0829 25.9591 17.205 26.6314 17.3982C26.6813 17.407 26.7258 17.4336 26.7557 17.4725C26.7856 17.5115 26.7987 17.5598 26.7923 17.6076C26.8003 18.2819 26.6464 18.949 26.3423 19.5582C26.1616 19.948 25.9285 20.3206 25.708 20.7206C24.3454 19.2131 22.8165 18.03 20.7058 17.7296Z" fill="black"/>
<path d="M20.0806 18.3272C19.9857 19.2407 19.9857 20.1609 20.0806 21.0744C20.1655 21.9898 20.4035 22.8865 20.7854 23.7307C20.6264 23.753 20.4818 23.7788 20.3354 23.7959C19.398 23.9302 18.4399 23.78 17.5976 23.3667C17.2036 23.1658 17.2018 23.1658 17.3012 22.7554C17.585 21.6272 18.1029 20.5642 18.8247 19.6287C19.1481 19.196 19.515 18.7925 19.8674 18.3821C19.9213 18.3394 19.9824 18.3058 20.0481 18.2825L20.0806 18.3272Z" fill="black"/>
<path d="M17.0065 22.9271C16.4821 22.3802 16.1455 21.6944 16.0415 20.9611C15.9096 19.9223 16.2728 19.014 16.8764 18.1727C16.9409 18.0991 17.0012 18.0223 17.0571 17.9426C17.1008 17.8705 17.1651 17.8117 17.2424 17.7728C17.3198 17.7339 17.4072 17.7166 17.4945 17.7228C18.1671 17.6733 18.8437 17.719 19.5022 17.8585C19.5497 17.8676 19.5936 17.8888 19.6294 17.9198C19.6652 17.9508 19.6914 17.9904 19.7053 18.0345C19.7192 18.0786 19.7203 18.1254 19.7084 18.17C19.6965 18.2146 19.6721 18.2553 19.6378 18.2877C18.6007 19.3558 17.8016 20.6121 17.2885 21.9811C17.1854 22.2764 17.1059 22.5958 17.0065 22.9271Z" fill="black"/>
<path d="M26.7345 17.1929C26.373 17.1121 26.0261 17.0211 25.6737 16.9575C23.9927 16.6499 22.2554 16.7829 20.648 17.3423C20.4673 17.4059 20.3986 17.3663 20.4293 17.1843C20.5056 16.6432 20.6955 16.1221 20.9877 15.6521C21.0103 15.6131 21.0419 15.5794 21.0801 15.5535C21.1182 15.5277 21.162 15.5103 21.2082 15.5027C22.553 15.2089 23.9569 15.2713 25.2671 15.683C26.008 15.9235 26.5321 16.3701 26.7236 17.1276C26.729 17.1482 26.7309 17.1705 26.7345 17.1929Z" fill="black"/>
<path d="M25.7081 21.035C25.8129 21.2341 25.9123 21.4127 25.999 21.5982C26.0237 21.6504 26.032 21.7083 26.023 21.7649C26.0141 21.8215 25.9882 21.8745 25.9484 21.9175C24.9635 23.0628 23.7798 23.9162 22.2112 24.196C22.0331 24.233 21.8514 24.252 21.6691 24.2527C21.5587 24.2415 21.4546 24.1983 21.3709 24.1291C21.2994 24.0483 21.2387 23.9595 21.1902 23.8646C22.9907 23.4363 24.584 22.4383 25.7081 21.035Z" fill="black"/>
<path d="M17.4602 17.4985C18.3573 16.6069 19.4853 15.9553 20.7311 15.6091C20.7189 15.6431 20.7044 15.6764 20.6878 15.7087C20.4334 16.1724 20.2682 16.6756 20.1998 17.1945C20.1974 17.2268 20.1859 17.2578 20.1665 17.2844C20.1471 17.311 20.1206 17.3322 20.0896 17.3456C19.9673 17.4268 19.8519 17.5169 19.7444 17.6153C19.7119 17.6394 19.6649 17.6737 19.636 17.6668C18.9433 17.5078 18.2286 17.4534 17.518 17.5054C17.4986 17.5046 17.4793 17.5023 17.4602 17.4985Z" fill="black"/>
<path d="M23.4255 24.0896L24.1484 23.7341L26.4164 27.1356C26.0857 27.0549 25.7766 26.9828 25.4694 26.9055C25.439 26.8928 25.4137 26.8711 25.3971 26.8437C24.7454 25.9382 24.0942 25.0328 23.4436 24.1273C23.4361 24.1154 23.43 24.1028 23.4255 24.0896Z" fill="black"/>
<path d="M27.011 18.1656C27.2224 19.1117 27.1718 20.0286 26.673 20.894C26.655 20.9266 26.6007 20.9661 26.5718 20.9609C26.3495 20.9146 26.1291 20.8579 25.8923 20.7995C26.4693 20.0128 26.8516 19.1124 27.011 18.1656Z" fill="black"/>
<path d="M17.3644 23.4781C18.436 24.0599 19.5691 24.1423 20.7672 23.9381C20.7203 24.1097 20.6823 24.271 20.6353 24.4255C20.6277 24.4397 20.6168 24.4521 20.6033 24.4617C20.5898 24.4712 20.5742 24.4776 20.5576 24.4804C19.7191 24.5233 18.895 24.4804 18.1234 24.12C17.8079 23.9838 17.5433 23.76 17.3644 23.4781Z" fill="black"/>
<path d="M20.0644 18.0769C20.0388 18.0791 20.013 18.0756 19.9891 18.0669C19.9651 18.0581 19.9435 18.0442 19.9261 18.0263C19.9086 18.0084 19.8957 17.9869 19.8884 17.9635C19.881 17.9401 19.8794 17.9154 19.8837 17.8913C19.8969 17.7987 19.9421 17.7129 20.012 17.6473C20.082 17.5817 20.1729 17.54 20.2704 17.5287C20.2949 17.5256 20.3198 17.5279 20.3432 17.5354C20.3667 17.5429 20.3879 17.5555 20.4054 17.5721C20.4229 17.5888 20.4361 17.609 20.444 17.6313C20.452 17.6535 20.4544 17.6772 20.4511 17.7005C20.4418 17.7959 20.3983 17.8854 20.3279 17.9539C20.2575 18.0224 20.1645 18.0659 20.0644 18.0769Z" fill="black"/>
<defs>
<filter id="filter0_d_382_43" x="0.5" y="0.499756" width="45" height="45" filterUnits="userSpaceOnUse" color-interpolation-filters="sRGB">
<feFlood flood-opacity="0" result="BackgroundImageFix"/>
<feColorMatrix in="SourceAlpha" type="matrix" values="0 0 0 0 0 0 0 0 0 0 0 0 0 0 0 0 0 0 127 0" result="hardAlpha"/>
<feOffset/>
<feGaussianBlur stdDeviation="5.25"/>
<feComposite in2="hardAlpha" operator="out"/>
<feColorMatrix type="matrix" values="0 0 0 0 1 0 0 0 0 0.982167 0 0 0 0 0.7325 0 0 0 0.54 0"/>
<feBlend mode="normal" in2="BackgroundImageFix" result="effect1_dropShadow_382_43"/>
<feBlend mode="normal" in="SourceGraphic" in2="effect1_dropShadow_382_43" result="shape"/>
</filter>
<linearGradient id="paint0_linear_382_43" x1="15" y1="14.9998" x2="28.5" y2="31.4998" gradientUnits="userSpaceOnUse">
<stop stop-color="#B38000"/>
<stop offset="0.406" stop-color="#F5EA2F"/>
<stop offset="0.776" stop-color="#DEAF12"/>
<stop offset="1" stop-color="#D5A308"/>
</linearGradient>
</defs>
</svg>
