<svg width="37" height="46" viewBox="0 0 37 46" fill="none" xmlns="http://www.w3.org/2000/svg">
<g filter="url(#filter0_d_382_45)">
<circle cx="23" cy="23" r="12" fill="url(#paint0_linear_382_45)"/>
<circle cx="23" cy="23" r="11.5" stroke="white"/>
</g>
<path d="M19.6225 29.5451C19.4868 29.4697 19.3607 29.3794 19.2469 29.2763C19.1737 29.1633 19.1192 29.0402 19.0853 28.9114H20.7735C20.7698 29.0571 20.7164 29.1977 20.6213 29.312C20.5263 29.4263 20.3947 29.5081 20.2465 29.5451H19.6225Z" fill="black"/>
<path d="M25.2929 29.5451C25.1456 29.5075 25.0147 29.4265 24.9189 29.3137C24.8231 29.2008 24.7674 29.062 24.7598 28.9172H26.4035C26.4117 29.034 26.3823 29.1504 26.3192 29.2509C26.256 29.3515 26.1622 29.4313 26.0502 29.4798L25.9149 29.5451H25.2929Z" fill="black"/>
<path d="M17.7808 26.0583V19.126H27.7464V26.0583H17.7808ZM22.7666 21.0697L22.706 21.0255C22.444 20.8007 22.1003 20.6814 21.7474 20.6929C21.3946 20.7043 21.0602 20.8456 20.8149 21.0868C20.5696 21.3281 20.4326 21.6505 20.4328 21.986C20.433 22.3215 20.5703 22.6437 20.8159 22.8847C21.2985 23.3663 21.7993 23.8326 22.3001 24.3007C22.3572 24.3591 22.4259 24.4062 22.5023 24.4391C22.5786 24.472 22.6611 24.4901 22.745 24.4925C22.8288 24.4948 22.9123 24.4812 22.9905 24.4526C23.0688 24.424 23.1403 24.3808 23.2008 24.3257C23.7339 23.8364 24.2731 23.3491 24.7678 22.8233C24.9907 22.568 25.102 22.2412 25.0788 21.9102C25.0555 21.5792 24.8995 21.2694 24.6428 21.0445C24.3862 20.8196 24.0485 20.6968 23.6994 20.7015C23.3504 20.7062 23.0165 20.838 22.7666 21.0697Z" fill="black"/>
<path d="M17.7869 18.4743C17.788 18.0995 17.9297 17.7374 18.1866 17.4531C18.4435 17.1688 18.7987 16.981 19.1883 16.9234C19.2969 16.9107 19.4061 16.9036 19.5155 16.9023C21.6829 16.9023 23.8504 16.9023 26.0179 16.9023C26.4059 16.887 26.7874 17.0009 27.0963 17.2245C27.4053 17.4481 27.6224 17.7673 27.7101 18.1269C27.7364 18.2363 27.7445 18.3495 27.7646 18.4743H17.7869Z" fill="black"/>
<path d="M17.7646 26.7048H27.7505C27.7574 26.9749 27.6832 27.2412 27.5365 27.4726C27.4022 27.712 27.202 27.9122 26.9573 28.0518C26.7126 28.1914 26.4325 28.2652 26.1471 28.2653C24.9113 28.2787 23.6754 28.2653 22.4395 28.2653C21.452 28.2653 20.4646 28.2653 19.4791 28.2653C19.0991 28.2754 18.7271 28.1606 18.4259 27.9403C18.1246 27.72 17.9124 27.4077 17.8252 27.0561C17.805 26.9544 17.7869 26.8354 17.7646 26.7048Z" fill="black"/>
<path d="M25.091 16.2641H24.4266V15.433C24.4266 15.1067 24.3216 15.005 23.9823 15.005H21.5591C21.2178 15.005 21.1148 15.1067 21.1128 15.433C21.1128 15.6998 21.1128 15.9647 21.1128 16.2315C21.1128 16.2315 21.1128 16.2488 21.0966 16.2641H20.4302C20.426 15.8705 20.4462 15.477 20.4908 15.0856C20.5359 14.8824 20.6541 14.7004 20.8252 14.5712C20.9962 14.4419 21.2093 14.3733 21.4278 14.3774C22.3264 14.3774 23.2251 14.3774 24.1237 14.3774C24.3713 14.3774 24.6096 14.4671 24.7901 14.6283C24.9706 14.7895 25.0796 15.01 25.095 15.2449C25.1132 15.577 25.091 15.9148 25.091 16.2641Z" fill="black"/>
<defs>
<filter id="filter0_d_382_45" x="0.5" y="0.5" width="45" height="45" filterUnits="userSpaceOnUse" color-interpolation-filters="sRGB">
<feFlood flood-opacity="0" result="BackgroundImageFix"/>
<feColorMatrix in="SourceAlpha" type="matrix" values="0 0 0 0 0 0 0 0 0 0 0 0 0 0 0 0 0 0 127 0" result="hardAlpha"/>
<feOffset/>
<feGaussianBlur stdDeviation="5.25"/>
<feComposite in2="hardAlpha" operator="out"/>
<feColorMatrix type="matrix" values="0 0 0 0 1 0 0 0 0 0.982167 0 0 0 0 0.7325 0 0 0 0.54 0"/>
<feBlend mode="normal" in2="BackgroundImageFix" result="effect1_dropShadow_382_45"/>
<feBlend mode="normal" in="SourceGraphic" in2="effect1_dropShadow_382_45" result="shape"/>
</filter>
<linearGradient id="paint0_linear_382_45" x1="15" y1="15" x2="28.5" y2="31.5" gradientUnits="userSpaceOnUse">
<stop stop-color="#B38000"/>
<stop offset="0.406" stop-color="#F5EA2F"/>
<stop offset="0.776" stop-color="#DEAF12"/>
<stop offset="1" stop-color="#D5A308"/>
</linearGradient>
</defs>
</svg>
