<svg width="46" height="46" viewBox="0 0 46 46" fill="none" xmlns="http://www.w3.org/2000/svg">
<g filter="url(#filter0_d_382_38)">
<circle cx="23" cy="23" r="12" fill="url(#paint0_linear_382_38)"/>
<circle cx="23" cy="23" r="11.5" stroke="white"/>
</g>
<path d="M19.8975 19.8206C19.5538 19.8551 19.2065 19.8322 18.8712 19.7528C18.7744 19.7302 18.6761 19.7061 18.5777 19.688C18.4123 19.6542 18.2395 19.6837 18.0967 19.77C17.9539 19.8563 17.8526 19.9925 17.8147 20.1492C17.7873 20.2239 17.776 20.3032 17.7817 20.3821C17.7874 20.4611 17.8099 20.5381 17.8479 20.6086C17.8859 20.6791 17.9385 20.7415 18.0026 20.792C18.0667 20.8426 18.1409 20.8802 18.2208 20.9027C18.5904 21.0007 18.9743 21.0535 19.3518 21.1168C19.4106 21.1251 19.47 21.1296 19.5294 21.1303C19.5041 21.2388 19.4819 21.3398 19.4549 21.4317C19.2804 22.0909 19.1049 22.7485 18.9283 23.4046C18.8585 23.691 18.6893 23.9469 18.4479 24.1308C18.2064 24.3148 17.9069 24.4163 17.5974 24.4189H17.5197C17.4674 24.6253 17.4166 24.8348 17.3611 25.0428C17.1403 25.9277 16.8519 26.7961 16.4982 27.6411C16.4277 27.7969 16.3461 27.948 16.2539 28.0932C16.1682 28.2348 16.0269 28.3384 15.8609 28.381C15.6949 28.4237 15.5179 28.402 15.3688 28.3208C15.2122 28.2469 15.0926 28.1173 15.0359 27.9602C14.9792 27.803 14.99 27.631 15.0658 27.4813C15.6543 26.3917 15.8986 25.1996 16.2127 24.027C16.2237 23.9585 16.2103 23.8885 16.1746 23.8281C16.1075 23.7144 16.0893 23.5804 16.1238 23.4543C16.476 22.0828 16.817 20.7083 17.1739 19.3368C17.25 19.0512 17.4249 18.7981 17.6706 18.6183C17.9163 18.4384 18.2184 18.3422 18.5285 18.3452C18.8413 18.3463 19.1442 18.4497 19.3863 18.638C19.6283 18.8263 19.7948 19.0879 19.8578 19.379C19.881 19.5253 19.8942 19.6728 19.8975 19.8206Z" fill="black"/>
<path d="M23.9295 23.9894C23.9136 24.1718 23.8962 24.3451 23.8819 24.5199C23.8406 25.0504 23.7899 25.5749 23.7645 26.1144C23.7765 26.2739 23.8047 26.4318 23.8486 26.5862C23.8907 26.9221 24.0551 27.2334 24.3133 27.4663C24.478 27.6233 24.6321 27.7899 24.7749 27.9652C24.8175 28.0067 24.8507 28.0561 24.8724 28.1103C24.8941 28.1646 24.9038 28.2224 24.901 28.2804C24.8981 28.3383 24.8828 28.3951 24.8559 28.4471C24.8291 28.4992 24.7913 28.5455 24.7448 28.5831C24.7009 28.624 24.6483 28.6555 24.5906 28.6755C24.5329 28.6955 24.4713 28.7036 24.4101 28.6991C24.3488 28.6947 24.2892 28.6779 24.2353 28.6498C24.1814 28.6218 24.1345 28.5831 24.0976 28.5364C23.7994 28.2154 23.5044 27.8928 23.2204 27.5613C23.1544 27.4707 23.109 27.368 23.0872 27.2598C23.0031 26.9584 22.9286 26.6465 22.8429 26.2998C22.7808 26.4249 22.7114 26.5467 22.6351 26.6645C22.3179 27.0911 22.237 27.5688 22.2227 28.0782C22.2201 28.1793 22.2095 28.2801 22.191 28.3796C22.1726 28.4844 22.1136 28.5788 22.0254 28.6441C21.9373 28.7095 21.8265 28.7409 21.7151 28.7323C21.6022 28.7292 21.4951 28.6839 21.4171 28.6063C21.339 28.5288 21.2962 28.4252 21.2979 28.3178C21.3281 27.8959 21.3804 27.4769 21.428 27.0564C21.4394 27.0029 21.4609 26.9519 21.4915 26.9057C21.6501 26.5907 21.8087 26.2727 21.9895 25.9622C22.0528 25.8528 22.0799 25.7278 22.0672 25.6035C22.0133 25.0127 21.9604 24.4214 21.9086 23.8296C21.9119 23.7945 21.9012 23.7595 21.8786 23.7316C21.8559 23.7036 21.8231 23.6848 21.7865 23.6789C21.2783 23.541 20.8343 23.2435 20.527 22.8349C20.3524 22.5923 20.264 22.3029 20.2748 22.009C20.2691 21.9226 20.299 21.8374 20.3582 21.7716C20.4174 21.7058 20.5013 21.6644 20.5921 21.6564C20.6387 21.6528 20.6856 21.6585 20.7298 21.6732C20.774 21.6878 20.8145 21.711 20.8487 21.7414C20.8828 21.7718 20.91 21.8086 20.9284 21.8495C20.9467 21.8903 20.9559 21.9344 20.9553 21.9789C20.941 22.6285 21.5898 22.9676 22.0561 23.0851C22.0958 23.0954 22.1381 23.0917 22.1751 23.0746C22.8096 22.749 23.3917 22.8756 23.9485 23.2404C24.0513 23.3124 24.1702 23.3608 24.296 23.3817C24.4218 23.4026 24.551 23.3955 24.6734 23.3609C24.8864 23.2887 25.0941 23.2031 25.2952 23.1047C25.3571 23.0776 25.4094 23.0294 25.4729 23.0067C25.5489 22.9758 25.634 22.9711 25.7133 22.9934C25.7927 23.0157 25.8613 23.0636 25.9075 23.1288C25.95 23.1996 25.9649 23.2824 25.9495 23.3627C25.9341 23.4429 25.8895 23.5154 25.8234 23.5674C25.3713 23.8854 24.8812 24.11 24.2959 24.0512C24.1849 24.0436 24.0706 24.015 23.9295 23.9894Z" fill="black"/>
<path d="M29.4275 20.2818C29.3212 21.0353 29.6067 21.8823 29.7732 22.7399C29.8637 23.2041 29.9652 23.6652 30.0683 24.1279C30.0822 24.1651 30.0801 24.206 30.0626 24.2418C30.0451 24.2776 30.0136 24.3054 29.9747 24.3193C29.4013 24.629 28.753 24.7918 28.0934 24.7918C27.4339 24.7918 26.7856 24.629 26.2122 24.3193C26.1747 24.3051 26.1443 24.2779 26.1272 24.2432C26.1102 24.2085 26.1076 24.1689 26.1202 24.1325C26.3317 23.1428 26.5331 22.1516 26.7245 21.1589C26.7351 21.0992 26.7394 21.0386 26.7372 20.978C26.7372 20.4053 26.7372 19.8311 26.7372 19.2584C26.731 19.2196 26.7387 19.1798 26.7591 19.1457C26.7795 19.1115 26.8115 19.0848 26.8498 19.07C27.2278 18.879 27.6494 18.7791 28.0776 18.7791C28.5057 18.7791 28.9273 18.879 29.3053 19.07C29.3461 19.0848 29.3806 19.1121 29.4033 19.1476C29.426 19.1831 29.4356 19.2247 29.4306 19.266C29.4227 19.5614 29.4275 19.8522 29.4275 20.2818ZM29.0769 20.1009C29.0975 19.6488 28.8168 19.3308 28.4519 19.3112C28.3593 19.3048 28.2662 19.316 28.1781 19.3439C28.09 19.3719 28.0086 19.4162 27.9385 19.4741C27.8685 19.5321 27.8112 19.6027 27.77 19.6818C27.7288 19.761 27.7045 19.847 27.6985 19.9351C27.6112 20.9253 27.3527 21.8537 26.6769 22.6479C26.5984 22.7357 26.5506 22.8447 26.5404 22.9595C26.5302 23.0743 26.5579 23.1894 26.6198 23.2885C26.6747 23.3956 26.7586 23.4869 26.8628 23.5531C26.967 23.6193 27.0879 23.658 27.2131 23.6652C27.5303 23.6863 27.7318 23.507 27.9063 23.2855C28.6692 22.3149 28.977 21.1996 29.0769 20.1009Z" fill="black"/>
<path d="M28.0237 25.0518L29.372 24.8363C29.4021 25.1875 29.4275 25.5582 29.4671 25.9275C29.4771 25.9984 29.5117 26.0642 29.5655 26.1143C29.87 26.3781 30.1809 26.6358 30.4903 26.895C30.8249 27.1769 30.8598 27.5341 30.5854 27.837C30.5261 27.9068 30.452 27.964 30.3679 28.0048C30.2837 28.0456 30.1915 28.069 30.0971 28.0735C30.0028 28.0781 29.9085 28.0637 29.8205 28.0312C29.7324 27.9988 29.6525 27.949 29.5861 27.8852C29.1785 27.5567 28.7771 27.2221 28.3726 26.8905C28.2979 26.8297 28.2367 26.7553 28.1926 26.6717C28.1485 26.5881 28.1223 26.497 28.1157 26.4037C28.0808 25.9455 28.0554 25.4904 28.0237 25.0518Z" fill="black"/>
<path d="M26.3899 24.6647L27.7143 25.0158L27.4717 25.9201C27.2982 26.5682 27.1259 27.2157 26.9545 27.8628C26.853 28.2411 26.5374 28.4656 26.1836 28.4129C26.0881 28.4037 25.9957 28.3751 25.9128 28.329C25.8299 28.283 25.7584 28.2205 25.703 28.146C25.6477 28.0714 25.6098 27.9864 25.5921 27.8967C25.5743 27.807 25.5769 27.7148 25.5999 27.6262C25.8521 26.645 26.1186 25.6669 26.3788 24.6888C26.3815 24.6804 26.3852 24.6723 26.3899 24.6647Z" fill="black"/>
<path d="M18.7347 24.2863C18.8601 24.7791 18.9981 25.2583 19.098 25.7436C19.2043 26.2901 19.2384 26.847 19.1995 27.4015C19.1773 27.8069 18.9092 28.0691 18.5174 28.0767C18.4203 28.0785 18.3239 28.0609 18.2344 28.025C18.1449 27.9891 18.0643 27.9358 17.9979 27.8684C17.9315 27.8011 17.8808 27.7212 17.8489 27.634C17.8171 27.5468 17.8049 27.4542 17.8132 27.3623C17.852 26.7622 17.7916 26.1601 17.6339 25.5779C17.5707 25.2985 17.5899 25.008 17.6894 24.7384C17.7003 24.7156 17.716 24.6952 17.7357 24.6786C17.7554 24.662 17.7785 24.6495 17.8036 24.6419C17.9543 24.5967 18.1209 24.5771 18.2605 24.5229C18.423 24.4523 18.5814 24.3734 18.7347 24.2863Z" fill="black"/>
<path d="M19.496 16.0166C19.8085 16.0213 20.1064 16.1431 20.325 16.3553C20.5436 16.5676 20.6652 16.8533 20.6635 17.1503C20.6585 17.4607 20.5249 17.7566 20.2918 17.9739C20.0587 18.1913 19.7448 18.3125 19.4183 18.3112C19.1012 18.2965 18.8029 18.1639 18.5876 17.9421C18.3724 17.7203 18.2575 17.4269 18.2677 17.1253C18.2779 16.8237 18.4124 16.538 18.6422 16.3297C18.8719 16.1215 19.1786 16.0074 19.496 16.012V16.0166Z" fill="black"/>
<path d="M26.8927 17.3012C26.8981 17.0751 26.974 16.8556 27.1107 16.6705C27.2474 16.4855 27.4387 16.3431 27.6606 16.2614C27.8825 16.1798 28.1248 16.1625 28.357 16.2118C28.5892 16.2612 28.8007 16.3748 28.9649 16.5385C29.1291 16.7021 29.2385 16.9084 29.2793 17.1312C29.3201 17.354 29.2905 17.5832 29.1941 17.79C29.0977 17.9968 28.939 18.1717 28.738 18.2927C28.537 18.4136 28.3028 18.4752 28.0649 18.4696C27.9072 18.4663 27.7517 18.4334 27.6073 18.3728C27.4629 18.3123 27.3325 18.2252 27.2236 18.1167C27.1147 18.0081 27.0295 17.8802 26.9727 17.7403C26.9159 17.6003 26.8887 17.4511 26.8927 17.3012Z" fill="black"/>
<path d="M19.4979 20.9668C19.1505 20.9035 18.754 20.8447 18.3654 20.7557C18.3034 20.7459 18.2443 20.7234 18.1923 20.6899C18.1403 20.6563 18.0965 20.6125 18.064 20.5614C18.0314 20.5103 18.0109 20.4531 18.0038 20.3937C17.9967 20.3343 18.0031 20.2742 18.0227 20.2175C18.0394 20.1576 18.0692 20.1019 18.1103 20.0538C18.1513 20.0058 18.2026 19.9666 18.2608 19.9388C18.319 19.911 18.3827 19.8952 18.4478 19.8926C18.5128 19.89 18.5777 19.9005 18.6382 19.9235C19.6565 20.2129 20.5892 20.0245 21.4632 19.4712C21.5881 19.3908 21.7309 19.3392 21.8804 19.3204C21.9716 19.318 22.0607 19.3459 22.1325 19.3993C22.2043 19.4527 22.2543 19.5282 22.2738 19.6129C22.3041 19.7076 22.3022 19.8091 22.2683 19.9028C22.2344 19.9964 22.1703 20.0775 22.085 20.1345C21.6289 20.4651 21.1021 20.6967 20.5416 20.813C20.2165 20.8839 19.885 20.9185 19.4979 20.9668Z" fill="black"/>
<path d="M23.7518 21.9038C23.7568 22.0149 23.7379 22.1258 23.6962 22.2296C23.6545 22.3335 23.591 22.4283 23.5095 22.508C23.4279 22.5877 23.3302 22.6508 23.2221 22.6934C23.114 22.736 22.998 22.7572 22.881 22.7556C22.762 22.7613 22.643 22.7439 22.5314 22.7043C22.4197 22.6647 22.3178 22.6038 22.2318 22.5254C22.1458 22.447 22.0776 22.3527 22.0314 22.2483C21.9851 22.1439 21.9618 22.0316 21.9629 21.9184C21.964 21.8051 21.9894 21.6933 22.0377 21.5897C22.0859 21.4862 22.1559 21.3931 22.2434 21.3161C22.3308 21.2392 22.4339 21.1801 22.5463 21.1425C22.6587 21.1048 22.778 21.0894 22.8969 21.0972C23.0092 21.0949 23.121 21.1142 23.2253 21.1539C23.3297 21.1936 23.4246 21.2528 23.5044 21.3281C23.5842 21.4033 23.6472 21.4931 23.6897 21.592C23.7322 21.6909 23.7533 21.7969 23.7518 21.9038Z" fill="black"/>
<path d="M20.1528 19.6014L19.8752 18.8295C20.1486 18.712 20.4136 18.5775 20.6684 18.4269C20.9203 18.2443 21.1564 18.0426 21.3742 17.8239C21.4445 17.7488 21.5391 17.6981 21.6431 17.6798C21.7471 17.6615 21.8545 17.6767 21.9484 17.7228C22.0398 17.7705 22.1113 17.8464 22.1508 17.9381C22.1904 18.0297 22.1956 18.1315 22.1657 18.2264C22.1491 18.2814 22.1211 18.3327 22.0833 18.3772C21.5833 18.9559 20.9161 19.3831 20.1639 19.6059C20.1465 19.6059 20.129 19.6014 20.1528 19.6014Z" fill="black"/>
<path d="M26.9926 18.7481C26.8621 18.8041 26.735 18.867 26.612 18.9366C26.5865 18.9543 26.5652 18.9768 26.5493 19.0028C26.5335 19.0287 26.5235 19.0575 26.52 19.0873C26.5073 19.226 26.52 19.3662 26.52 19.52C26.13 19.4094 25.7611 19.2404 25.427 19.0195C25.1621 18.8461 24.9099 18.6546 24.6641 18.4571C24.585 18.3888 24.531 18.2983 24.5099 18.1988C24.4888 18.0992 24.5017 17.9959 24.5467 17.9038C24.5841 17.828 24.6464 17.7659 24.7243 17.7267C24.8021 17.6876 24.8912 17.6735 24.9781 17.6867C25.0668 17.6981 25.1506 17.732 25.2208 17.7847C25.7255 18.2312 26.3319 18.5609 26.9926 18.7481Z" fill="black"/>
<path d="M24.2358 15.6188C24.2104 15.7379 24.1961 15.8434 24.166 15.9444C24.0246 16.4311 23.7649 16.8793 23.4078 17.2531C23.3411 17.322 23.2666 17.3836 23.1857 17.437C23.0398 17.529 22.9715 17.4943 22.9763 17.327C22.9801 17.2066 22.9993 17.0871 23.0334 16.9711C23.1828 16.4754 23.4584 16.0222 23.836 15.6519C23.8868 15.6006 23.9431 15.5546 24.0042 15.5147C24.0549 15.4846 24.1422 15.4409 24.1628 15.4605C24.1834 15.4801 24.2151 15.569 24.2358 15.6188Z" fill="black"/>
<path d="M23.8408 15.3641C23.2626 15.8585 22.8723 16.5204 22.7304 17.2472C22.4449 17.0799 22.2546 16.4813 22.5115 15.9868C22.7685 15.4923 23.3681 15.2058 23.8408 15.3641Z" fill="black"/>
<path d="M23.3696 17.6028C23.9552 17.1041 24.3465 16.4321 24.48 15.6956C24.6573 15.8681 24.7715 16.0903 24.8055 16.3293C24.8395 16.5683 24.7915 16.8113 24.6687 17.0224C24.552 17.2435 24.3605 17.421 24.1249 17.5263C23.8893 17.6315 23.6233 17.6585 23.3696 17.6028Z" fill="black"/>
<path d="M28.8295 20.1025C28.7184 21.2012 28.4107 22.312 27.6128 23.2539C27.5617 23.3262 27.4893 23.3824 27.4046 23.4157C27.32 23.4489 27.2268 23.4577 27.137 23.4408C27.0529 23.4265 26.975 23.3894 26.9125 23.3341C26.8501 23.2787 26.8057 23.2075 26.7848 23.1288C26.7636 23.0632 26.7606 22.9934 26.7762 22.9263C26.7917 22.8592 26.8253 22.7971 26.8737 22.746C27.5748 21.9518 27.8254 21.0053 27.911 19.9985C27.9086 19.91 27.9328 19.8227 27.9809 19.7469C28.0289 19.671 28.0988 19.6098 28.1823 19.5705C28.5138 19.4198 28.8437 19.6519 28.8295 20.1025Z" fill="black"/>
<defs>
<filter id="filter0_d_382_38" x="0.5" y="0.5" width="45" height="45" filterUnits="userSpaceOnUse" color-interpolation-filters="sRGB">
<feFlood flood-opacity="0" result="BackgroundImageFix"/>
<feColorMatrix in="SourceAlpha" type="matrix" values="0 0 0 0 0 0 0 0 0 0 0 0 0 0 0 0 0 0 127 0" result="hardAlpha"/>
<feOffset/>
<feGaussianBlur stdDeviation="5.25"/>
<feComposite in2="hardAlpha" operator="out"/>
<feColorMatrix type="matrix" values="0 0 0 0 1 0 0 0 0 0.982167 0 0 0 0 0.7325 0 0 0 0.54 0"/>
<feBlend mode="normal" in2="BackgroundImageFix" result="effect1_dropShadow_382_38"/>
<feBlend mode="normal" in="SourceGraphic" in2="effect1_dropShadow_382_38" result="shape"/>
</filter>
<linearGradient id="paint0_linear_382_38" x1="15" y1="15" x2="28.5" y2="31.5" gradientUnits="userSpaceOnUse">
<stop stop-color="#B38000"/>
<stop offset="0.406" stop-color="#F5EA2F"/>
<stop offset="0.776" stop-color="#DEAF12"/>
<stop offset="1" stop-color="#D5A308"/>
</linearGradient>
</defs>
</svg>
